<?xml version="1.0" encoding="UTF-8"?>
<svg id="asstus" xmlns="http://www.w3.org/2000/svg" viewBox="0 0 2350 2350">
  <defs>
    <style>
      .cls-1 {
        fill: #ff6d00;
      }
    </style>
  </defs>
  <g id="A">
    <g id="black">
      <path id="top" class="cls-1" d="M2022.73,86.35C1927.49,31.46,1817.24,0,1700,0H375c-68.75,0-125,56.25-125,125h0c0,68.75,56.25,125,125,125H1700c132.49,0,249.94-64.42,322.73-163.65Z"/>
      <path id="A-2" data-name="A" class="cls-1" d="M2263.65,327.27c-99.23,72.79-163.65,190.24-163.65,322.73v275c0,69.04-55.96,125-125,125H900c-117.24,0-227.49,31.46-322.73,86.35,72.79,99.23,190.24,163.65,322.73,163.65H1975c68.75,0,125,56.25,125,125v275c0,220-180,400-400,400H625c-68.75,0-125-56.25-125-125v-275c0-132.49-64.42-249.94-163.65-322.73-54.89,95.24-86.35,205.49-86.35,322.73v525c0,68.75,56.25,125,125,125H1700c357.5,0,650-292.5,650-650V650h0c0-117.24-31.46-227.49-86.35-322.73Z"/>
      <circle id="right" class="cls-1" cx="1700" cy="1700" r="100"/>
      <circle id="left" class="cls-1" cx="900" cy="1700" r="100"/>
    </g>
    <g id="orange">
      <path id="star" d="M2100,400c0-82.84,67.16-150,150-150-82.84,0-150-67.16-150-150,0,82.84-67.16,150-150,150,82.84,0,150,67.16,150,150Z"/>
      <path id="phone" d="M900,800C402.94,800,0,1202.94,0,1700c0,69.04,55.96,125,125,125s125-55.96,125-125c0-117.6,31.23-227.91,85.86-323.08-66.13-48.36-147.65-76.92-235.86-76.92,220.91,0,400-179.09,400-400,0,88.2,28.55,169.73,76.91,235.86,95.17-54.63,205.48-85.86,323.09-85.86,69.04,0,125-55.96,125-125s-55.96-125-125-125Z"/>
    </g>
  </g>
</svg>